<?xml version="1.0" encoding="UTF-8"?>
<!--
  DriftSonar アプリアイコン ベクター素材 (TASK-116)
  イルカ本体: Imagen 4 生成の AppIcon-1024.png を potrace でトレースした原本ベクター。
  ソナー波: パラメトリックな円弧3本（透明度減衰）で再構成。
  デザイン仕様: 白角丸背景 / 水色イルカ(跳ねるポーズ) / 鼻先からソナー波3本。
  色: dolphin #1AA7C0 (drift) / sonar arcs #40C8E0 (sonar)。色は <style> で一元管理。
  viewBox 1024x1024。イルカパスは potrace 座標系のため transform で正立させている。
-->
<svg xmlns="http://www.w3.org/2000/svg" viewBox="0 0 1024 1024" width="1024" height="1024" role="img" aria-label="DriftSonar app icon: a water-blue dolphin emitting sonar waves">
  <style>
    .bg      { fill: #FFFFFF; }
    .dolphin { fill: #1AA7C0; }
    .wave    { fill: none; stroke: #40C8E0; stroke-width: 26; stroke-linecap: round; }
  </style>

  <!-- 白角丸背景（iOS の角丸はシステムに委ねるが、素材としてマスクを保持） -->
  <rect class="bg" x="0" y="0" width="1024" height="1024" rx="225" ry="225"/>

  <!-- イルカ本体（potrace トレース）。目は穴として抜けており背景の白が透けて目になる -->
  <g transform="translate(0,1024) scale(0.1,-0.1)">
    <path class="dolphin" d="M4609 6270 c-271 -20 -567 -108 -854 -254 l-70 -36 -201 0 c-208 1
-275 -6 -406 -39 -273 -70 -432 -219 -265 -246 55 -10 154 -55 195 -90 70 -59
102 -148 73 -203 -48 -89 -165 -330 -186 -382 -120 -293 -181 -578 -191 -890
-7 -193 1 -320 37 -570 35 -251 30 -268 -126 -414 -118 -109 -167 -169 -218
-266 -52 -99 -68 -156 -74 -261 -8 -138 20 -180 66 -99 45 81 126 155 215 199
46 23 89 41 96 41 18 0 133 60 157 82 12 11 27 33 33 49 13 31 24 36 36 18 12
-20 88 -48 119 -44 17 2 86 7 155 11 116 6 130 5 175 -15 27 -12 63 -33 81
-46 49 -38 64 -33 63 18 -1 87 -118 247 -234 321 -27 18 -76 44 -107 59 -211
99 -203 90 -195 220 12 199 133 503 285 717 91 128 319 356 462 461 115 85
284 199 294 199 10 0 6 -102 -5 -150 -5 -25 -30 -89 -56 -142 -25 -54 -43
-103 -40 -112 15 -38 117 -3 224 75 129 94 278 279 324 402 21 55 23 57 41 41
34 -32 68 -117 81 -209 14 -102 25 -112 75 -70 50 42 91 111 125 209 29 85 31
100 30 221 0 72 -2 141 -4 154 -4 21 12 32 176 115 274 140 329 162 640 256
114 34 177 78 190 132 5 21 3 29 -9 34 -9 4 -16 18 -16 34 0 52 -38 71 -205
104 -71 14 -129 27 -130 28 -1 2 -23 31 -49 65 -156 202 -445 299 -807 273z
m474 -392 c26 -34 16 -73 -23 -93 -34 -18 -73 -7 -89 24 -17 31 -13 50 14 77
32 32 71 29 98 -8z"/>
  </g>

  <!-- ソナー波 3本: 鼻先付近を中心に右へ開く円弧。外側ほど透過 -->
  <g class="wave">
    <path d="M 648 408 A 86 86 0 0 1 648 540"  opacity="0.95"/>
    <path d="M 700 376 A 138 138 0 0 1 700 572" opacity="0.65"/>
    <path d="M 752 344 A 190 190 0 0 1 752 604" opacity="0.40"/>
  </g>
</svg>
